REM MD5 d166cc886bb5284b05306dadd26c6d90
FILE "Hoshigami - Ruining Blue Earth (USA).bin" BINARY
  TRACK 01 MODE2/2352
    INDEX 01 00:00:00
  TRACK 02 AUDIO
    INDEX 00 52:29:25
    INDEX 01 52:31:25
  TRACK 03 AUDIO
    INDEX 00 54:07:43
    INDEX 01 54:09:43
  TRACK 04 AUDIO
    INDEX 00 55:44:34
    INDEX 01 55:46:34
  TRACK 05 AUDIO
    INDEX 00 57:19:72
    INDEX 01 57:21:72
REM LEADOUT 61:19:55
